<?xml version="1.0" standalone="no"?>
<!DOCTYPE svg PUBLIC "-//W3C//DTD SVG 20010904//EN"
 "http://www.w3.org/TR/2001/REC-SVG-20010904/DTD/svg10.dtd">
<svg version="1.0" xmlns="http://www.w3.org/2000/svg"
 width="1200.000000pt" height="1200.000000pt" viewBox="0 0 1200.000000 1200.000000"
 preserveAspectRatio="xMidYMid meet">
<metadata>
Created by potrace 1.11, written by Peter Selinger 2001-2013
</metadata>
<g transform="translate(0.000000,1200.000000) scale(0.100000,-0.100000)"
fill="#000000" stroke="none">
<path d="M6510 11042 c0 -5 7 -9 15 -9 8 0 12 4 9 9 -3 4 -9 8 -15 8 -5 0 -9
-4 -9 -8z"/>
<path d="M6590 11042 c0 -7 -4 -10 -10 -7 -5 3 -20 -1 -33 -10 -13 -8 -27 -12
-31 -8 -4 4 -11 1 -16 -6 -4 -8 -16 -15 -27 -17 -36 -5 -63 -16 -57 -25 3 -5
0 -9 -6 -9 -6 0 -8 -5 -4 -12 5 -9 3 -9 -9 1 -9 7 -15 17 -12 21 3 5 1 11 -4
14 -5 4 -7 -8 -5 -26 4 -25 2 -29 -5 -18 -7 9 -11 11 -11 3 0 -18 -52 -63 -64
-56 -5 4 -7 -1 -3 -10 4 -12 1 -17 -9 -17 -10 0 -14 -6 -11 -15 4 -8 1 -17 -5
-21 -7 -5 -8 -2 -4 7 4 8 1 5 -8 -5 -8 -10 -12 -24 -9 -30 4 -6 -2 -4 -12 4
-12 10 -16 10 -11 2 9 -14 -12 -45 -25 -37 -4 3 -6 -4 -4 -16 2 -12 2 -20 0
-17 -3 3 -23 -13 -46 -34 -22 -21 -44 -36 -49 -33 -5 3 -7 -3 -5 -13 2 -11 -3
-19 -11 -19 -8 0 -14 4 -14 9 0 4 -4 8 -9 8 -4 0 -7 -11 -6 -24 2 -19 -1 -24
-16 -21 -10 2 -18 1 -18 -3 3 -20 -2 -32 -11 -27 -6 3 -13 -1 -16 -9 -3 -9
-13 -16 -21 -16 -9 0 -11 -5 -7 -12 6 -10 4 -10 -8 0 -13 10 -18 10 -24 1 -4
-8 -3 -9 4 -5 7 4 12 3 12 -3 0 -6 -12 -18 -27 -28 -16 -10 -32 -23 -36 -30
-5 -8 -12 -11 -18 -8 -5 3 -6 0 -3 -8 3 -8 -2 -17 -11 -21 -9 -3 -13 -11 -9
-17 4 -8 -1 -9 -16 -4 -17 5 -21 4 -15 -6 6 -9 3 -11 -9 -6 -10 4 -15 3 -11
-3 3 -6 -1 -13 -9 -16 -9 -3 -14 -10 -11 -14 5 -8 -64 -55 -77 -52 -4 1 -4 -6
-1 -15 5 -12 3 -14 -7 -8 -10 6 -12 4 -7 -9 5 -12 3 -16 -5 -13 -7 2 -11 13
-10 23 2 10 1 16 -3 12 -4 -4 -8 -18 -9 -30 -1 -16 -7 -23 -19 -22 -10 1 -16
-1 -13 -4 9 -8 -15 -33 -25 -26 -5 3 -8 0 -7 -8 2 -7 -3 -12 -9 -11 -7 2 -12
0 -12 -5 3 -19 -2 -33 -11 -27 -5 3 -10 1 -10 -5 0 -7 -7 -10 -14 -7 -10 4
-13 1 -9 -9 6 -16 -7 -19 -25 -4 -8 7 -9 7 -3 -1 13 -16 2 -39 -15 -32 -8 3
-14 2 -13 -3 4 -21 -2 -35 -11 -29 -5 3 -10 -1 -10 -9 0 -8 -5 -18 -12 -22 -8
-5 -9 -2 -5 9 3 9 1 19 -5 23 -6 4 -8 3 -5 -2 9 -15 -8 -35 -31 -37 -11 0 -18
-5 -16 -9 3 -5 10 -6 15 -3 5 4 9 3 9 -2 0 -4 -16 -19 -35 -33 -19 -14 -35
-31 -35 -39 0 -7 -6 -11 -15 -7 -8 3 -14 2 -14 -2 4 -25 -3 -34 -22 -29 -17 5
-18 3 -7 -11 8 -10 9 -13 1 -9 -6 4 -16 0 -21 -9 -5 -9 -13 -17 -18 -17 -5 -1
-8 -6 -6 -11 2 -5 -4 -6 -13 -2 -9 3 -13 2 -10 -3 3 -5 -4 -16 -15 -24 -11 -7
-17 -17 -13 -20 3 -4 -1 -7 -11 -7 -9 0 -14 -4 -11 -10 3 -5 -1 -10 -10 -10
-18 0 -45 -23 -45 -39 0 -5 -9 -8 -20 -6 -11 2 -23 -1 -26 -7 -4 -6 -2 -8 4
-4 6 3 13 2 16 -3 7 -11 -22 -23 -37 -15 -9 5 -8 3 0 -6 9 -10 6 -17 -15 -34
-15 -12 -31 -20 -36 -18 -5 2 -3 -5 5 -14 9 -12 9 -15 2 -10 -8 4 -13 2 -13
-6 0 -10 -3 -9 -9 2 -6 8 -7 18 -4 24 3 5 1 6 -5 2 -6 -3 -8 -18 -6 -32 4 -21
1 -25 -11 -21 -10 5 -15 0 -15 -13 0 -13 -7 -20 -20 -20 -12 0 -24 -10 -30
-22 -5 -13 -9 -19 -9 -13 -1 5 -8 -1 -17 -13 -8 -12 -20 -20 -25 -17 -5 3 -6
-1 -3 -9 7 -19 -12 -22 -20 -3 -3 6 -3 0 -1 -15 4 -27 -11 -34 -28 -13 -5 6
-7 4 -6 -5 3 -22 -12 -51 -22 -44 -5 3 -9 0 -9 -5 0 -6 -6 -10 -12 -9 -7 2
-12 -3 -10 -10 1 -7 -5 -15 -13 -18 -8 -3 -12 -10 -9 -15 5 -8 -10 -13 -30
-10 -5 1 -6 -5 -3 -13 3 -8 -1 -17 -9 -20 -9 -3 -12 -11 -9 -16 4 -6 3 -10 -2
-9 -24 4 -43 -3 -43 -17 0 -8 -4 -13 -9 -10 -5 3 -8 -2 -7 -11 0 -10 -4 -18
-11 -18 -7 0 -23 -15 -36 -32 -13 -18 -27 -30 -30 -26 -7 6 -11 -12 -8 -30 1
-5 -3 -6 -9 -2 -5 3 -10 1 -10 -5 0 -6 -4 -8 -10 -5 -5 3 -10 2 -10 -4 0 -6
-8 -8 -17 -4 -15 5 -14 3 2 -11 11 -9 16 -16 10 -15 -5 1 -19 1 -30 0 -17 -1
-18 -3 -5 -11 8 -5 10 -10 4 -10 -5 0 -19 -7 -30 -16 -10 -8 -12 -13 -4 -9 8
4 2 -5 -15 -19 -16 -14 -34 -26 -38 -26 -5 0 -5 -4 -2 -10 3 -5 2 -10 -3 -10
-5 0 -23 -14 -40 -31 -19 -19 -35 -28 -43 -24 -8 6 -10 4 -5 -4 11 -17 -22
-51 -42 -44 -13 4 -12 1 3 -11 11 -10 15 -15 9 -12 -6 3 -20 -1 -30 -9 -18
-15 -18 -15 1 -9 18 6 17 5 -3 -10 -12 -10 -26 -15 -31 -11 -5 3 -13 1 -16 -5
-4 -6 -3 -9 2 -8 4 2 8 -2 8 -7 0 -6 -6 -9 -12 -9 -7 1 -11 -2 -8 -6 6 -10
-29 -50 -44 -50 -6 0 -11 -5 -11 -11 0 -6 -6 -9 -14 -6 -9 4 -12 0 -9 -13 3
-12 -2 -20 -17 -25 -16 -5 -19 -10 -10 -15 8 -5 7 -9 -7 -15 -10 -5 -21 -7
-25 -7 -5 1 -7 -1 -6 -6 3 -14 -14 -42 -23 -36 -5 3 -9 -2 -9 -11 0 -9 -4 -13
-10 -10 -5 3 -10 1 -10 -5 0 -6 -5 -8 -10 -5 -6 4 -10 3 -9 -2 3 -19 -2 -34
-10 -29 -5 3 -14 -8 -21 -24 -7 -16 -16 -27 -21 -24 -5 3 -9 -2 -9 -12 0 -14
-2 -15 -17 -3 -9 8 -14 9 -10 2 9 -15 -2 -45 -14 -37 -5 3 -6 10 -3 16 4 6 2
8 -4 5 -5 -4 -8 -17 -4 -29 4 -16 2 -19 -8 -13 -9 6 -12 4 -9 -6 5 -15 -36
-61 -45 -51 -6 5 -10 -14 -7 -33 1 -5 -7 0 -17 13 -17 21 -18 22 -18 3 0 -11
4 -17 8 -15 4 3 8 0 8 -6 0 -6 -7 -13 -15 -16 -8 -4 -12 -11 -8 -18 4 -6 0 -6
-9 2 -13 10 -18 10 -24 1 -4 -8 -3 -9 4 -5 16 10 14 -5 -3 -28 -7 -10 -19 -15
-25 -11 -6 3 -10 3 -9 -2 2 -16 -13 -53 -21 -48 -9 5 -24 -24 -21 -39 1 -5 -6
-3 -15 5 -12 9 -15 9 -10 2 4 -8 2 -13 -4 -13 -6 0 -8 -4 -5 -10 3 -5 1 -10
-5 -10 -6 0 -8 -4 -5 -10 3 -5 2 -10 -3 -10 -15 0 -53 -41 -47 -51 4 -5 -4 -9
-17 -9 -18 0 -20 -2 -8 -10 13 -9 13 -10 0 -11 -8 -1 -17 -1 -20 -1 -3 0 -7
-9 -7 -20 -2 -24 -22 -40 -40 -33 -7 2 -15 -1 -19 -7 -4 -7 -3 -8 4 -4 7 4 12
2 12 -4 0 -6 -7 -13 -15 -16 -8 -4 -12 -10 -9 -15 3 -5 -2 -9 -10 -9 -9 0 -16
-7 -16 -15 0 -8 -5 -15 -11 -15 -5 0 -7 -5 -4 -11 7 -11 -33 -46 -47 -41 -10
3 -10 -25 0 -31 4 -2 1 -2 -5 -1 -12 3 -18 -9 -13 -31 1 -5 -4 -4 -11 2 -7 7
-18 13 -23 13 -6 0 -4 -5 4 -10 13 -9 13 -12 -3 -21 -9 -6 -14 -15 -11 -21 5
-7 2 -8 -6 -3 -10 6 -12 4 -6 -10 6 -16 4 -16 -11 -4 -10 7 -15 9 -10 4 4 -4
-1 -17 -10 -28 -13 -15 -14 -18 -3 -12 12 6 13 5 3 -5 -10 -11 -15 -11 -30 1
-16 12 -17 12 -6 -2 10 -12 7 -22 -14 -52 -19 -26 -30 -34 -38 -27 -9 7 -11 3
-10 -18 1 -19 -6 -32 -24 -44 -14 -10 -22 -18 -17 -18 5 0 2 -8 -7 -18 -10
-10 -14 -22 -10 -26 5 -4 1 -6 -7 -4 -8 2 -20 9 -25 16 -8 10 -11 9 -11 -7 0
-11 4 -18 7 -15 4 2 10 0 13 -5 4 -5 -3 -12 -14 -16 -11 -3 -19 -9 -19 -13 3
-19 -2 -32 -12 -32 -5 0 -8 4 -5 8 7 11 -31 8 -41 -3 -5 -4 -3 -5 3 -2 6 4 20
0 30 -8 17 -13 18 -14 2 -15 -10 0 -18 -7 -18 -16 0 -8 -5 -12 -10 -9 -6 4 -7
11 -4 17 4 7 2 8 -5 4 -6 -4 -9 -12 -6 -17 9 -13 -5 -50 -16 -44 -5 4 -9 -1
-9 -10 0 -9 -4 -14 -8 -11 -5 3 -9 -1 -10 -9 -1 -8 -3 -22 -4 -30 -1 -8 -5
-12 -10 -9 -5 4 -12 -3 -15 -14 -3 -14 -10 -19 -21 -15 -9 4 -13 2 -9 -4 9
-15 -3 -44 -14 -37 -5 3 -9 -1 -9 -8 0 -9 -3 -9 -10 2 -6 9 -10 10 -10 3 0 -6
5 -15 10 -18 13 -8 -18 -40 -39 -40 -10 0 -16 -9 -16 -25 0 -16 -5 -24 -14
-22 -11 2 -12 0 -2 -11 9 -12 8 -16 -5 -21 -9 -3 -19 -4 -23 -1 -4 2 -8 -2 -8
-10 0 -8 4 -12 9 -9 4 3 3 -6 -3 -20 -7 -14 -16 -23 -20 -20 -5 3 -11 -7 -15
-21 -3 -14 -14 -25 -23 -26 -9 0 -11 -3 -4 -5 15 -6 -15 -44 -34 -44 -7 0 -13
-5 -13 -11 0 -6 7 -8 18 -4 12 4 11 1 -5 -15 -13 -11 -23 -25 -23 -30 0 -6 -5
-10 -11 -10 -8 0 -7 6 2 18 13 15 12 16 -4 3 -14 -11 -15 -16 -5 -29 7 -9 8
-13 2 -9 -6 3 -16 -5 -23 -19 -7 -15 -16 -22 -23 -18 -8 5 -9 2 -5 -9 3 -10 2
-17 -4 -17 -6 0 -7 -5 -3 -12 5 -7 2 -9 -9 -5 -12 4 -14 2 -10 -10 4 -9 2 -14
-3 -10 -6 3 -16 1 -24 -5 -12 -8 -12 -9 2 -4 22 7 35 -12 14 -20 -9 -3 -13
-10 -10 -15 3 -5 0 -9 -6 -9 -7 0 -10 -7 -7 -14 4 -10 1 -13 -9 -9 -10 3 -14
-2 -14 -18 0 -18 -3 -20 -12 -11 -15 15 -28 15 -28 1 0 -5 4 -7 10 -4 5 3 10
-3 10 -14 0 -23 -10 -27 -26 -11 -7 7 -11 6 -11 -4 0 -8 4 -13 9 -10 17 11 7
-16 -14 -37 -13 -12 -17 -19 -10 -14 11 6 11 3 0 -14 -7 -12 -16 -21 -21 -21
-4 0 -5 -4 -2 -10 3 -5 -1 -10 -9 -10 -8 0 -18 -4 -21 -10 -3 -6 1 -7 10 -4
11 5 14 2 9 -10 -4 -10 -12 -15 -19 -12 -8 3 -12 -5 -10 -24 2 -19 -2 -27 -10
-24 -7 3 -16 0 -21 -7 -5 -8 -3 -10 7 -5 8 4 5 0 -5 -8 -15 -12 -16 -16 -5
-16 10 -1 9 -4 -5 -15 -10 -8 -15 -19 -10 -26 5 -9 2 -10 -9 -6 -11 4 -15 1
-12 -14 4 -22 -5 -24 -25 -6 -12 10 -12 9 0 -6 11 -15 11 -20 1 -27 -11 -6
-11 -9 0 -13 10 -4 11 -6 1 -6 -7 -1 -17 -12 -22 -26 -6 -17 -15 -23 -30 -20
-13 3 -18 0 -14 -7 4 -6 8 -22 10 -35 2 -20 0 -22 -12 -12 -8 6 -17 9 -21 5
-3 -3 -2 -6 4 -6 21 0 22 -40 1 -54 -12 -9 -17 -19 -13 -27 5 -7 4 -10 -1 -7
-5 3 -15 0 -22 -8 -8 -9 -9 -14 -2 -14 6 0 8 -5 5 -10 -4 -6 -10 -8 -14 -6 -4
3 -8 -1 -9 -9 -1 -8 -3 -22 -4 -30 -1 -8 -8 -17 -15 -19 -8 -3 -11 -10 -8 -16
3 -5 1 -10 -5 -10 -6 0 -8 -5 -5 -10 3 -6 0 -17 -7 -25 -31 -34 -35 -42 -34
-67 1 -15 -2 -24 -6 -22 -3 2 -9 0 -13 -6 -4 -6 -12 -8 -18 -4 -7 3 -3 -2 7
-10 17 -14 18 -16 3 -16 -9 0 -17 -4 -17 -10 0 -5 -8 -10 -17 -11 -12 0 -13
-2 -5 -6 7 -3 20 1 30 8 9 7 6 0 -8 -15 -14 -16 -19 -26 -13 -22 7 4 13 4 13
1 0 -10 -27 -35 -32 -29 -3 3 -3 -7 0 -22 3 -17 1 -25 -6 -21 -5 4 -13 0 -16
-9 -3 -8 -2 -12 4 -9 6 3 7 -1 4 -9 -3 -9 -11 -16 -16 -16 -6 0 -8 -7 -4 -15
3 -10 -1 -15 -12 -16 -10 0 -12 -3 -5 -6 10 -3 9 -10 -2 -27 -8 -12 -12 -26
-8 -31 5 -4 0 -5 -9 -2 -10 3 -20 1 -24 -5 -4 -6 -3 -8 4 -4 6 3 13 2 17 -4 3
-5 1 -10 -5 -10 -7 0 -9 -7 -6 -16 4 -10 2 -13 -6 -8 -7 5 -9 0 -6 -14 4 -16
2 -22 -9 -22 -12 0 -13 -3 -4 -14 9 -10 8 -16 -3 -25 -8 -7 -13 -18 -10 -25 3
-8 -2 -21 -11 -30 -9 -9 -13 -16 -9 -16 3 0 1 -6 -5 -13 -6 -8 -8 -17 -4 -20
3 -4 1 -7 -6 -7 -8 0 -11 -7 -7 -15 3 -8 1 -15 -5 -15 -6 0 -9 -8 -8 -17 3
-34 -1 -44 -23 -53 -23 -9 -23 -9 2 -10 14 -1 19 -4 13 -7 -7 -2 -13 -13 -13
-23 0 -10 -5 -22 -10 -25 -6 -4 -8 -11 -5 -16 4 -5 -2 -9 -12 -9 -15 0 -16 -2
-3 -10 14 -9 13 -11 -9 -14 -5 0 -13 -5 -18 -9 -4 -5 -2 -7 6 -5 7 2 15 -5 16
-15 2 -13 -1 -17 -11 -13 -8 3 -14 1 -14 -4 0 -6 8 -10 18 -10 16 -1 16 -1 0
-14 -12 -8 -16 -22 -12 -40 3 -18 1 -25 -6 -21 -14 9 -13 -8 3 -24 10 -10 9
-11 -6 -5 -13 5 -16 2 -10 -12 4 -12 3 -15 -5 -10 -19 11 -14 -5 6 -20 16 -13
16 -14 -2 -7 -13 4 -17 3 -13 -4 11 -18 -3 -42 -21 -36 -10 3 -13 1 -7 -4 17
-14 41 -47 29 -40 -6 3 -20 0 -30 -8 -17 -13 -18 -14 -1 -15 19 0 23 -15 7
-25 -6 -4 -9 -14 -8 -23 2 -9 -3 -16 -9 -14 -7 1 -13 -2 -13 -8 0 -5 5 -10 10
-10 6 0 10 -9 10 -21 0 -13 -4 -18 -12 -13 -8 5 -7 0 2 -11 9 -11 10 -16 3
-11 -8 4 -13 2 -13 -4 0 -6 -5 -8 -10 -5 -6 3 -10 2 -10 -3 0 -5 10 -12 22
-16 l23 -6 -24 -16 c-18 -13 -20 -18 -10 -25 12 -7 11 -9 -1 -9 -11 0 -11 -3
-2 -12 9 -9 8 -16 -5 -30 -10 -11 -11 -18 -5 -18 7 0 12 -7 12 -16 0 -8 -4
-12 -10 -9 -6 3 -10 -4 -10 -17 0 -18 2 -20 10 -8 6 9 10 10 10 3 0 -7 -8 -17
-17 -22 -17 -10 -17 -10 0 -11 14 0 16 -4 9 -16 -5 -9 -7 -25 -5 -34 3 -10 0
-21 -6 -24 -7 -5 -8 -14 -3 -24 5 -9 7 -23 6 -29 -1 -7 -2 -20 -3 -28 0 -8 -5
-15 -10 -15 -6 0 -8 10 -6 21 3 12 1 19 -2 15 -15 -15 -10 -39 8 -43 13 -4 16
-9 11 -17 -11 -14 -12 -46 -1 -46 5 0 6 -6 4 -12 -2 -7 -6 -37 -9 -66 -3 -29
-8 -58 -12 -64 -4 -7 -3 -8 4 -4 7 4 12 1 12 -9 0 -11 -5 -15 -16 -11 -8 3
-12 2 -9 -4 3 -6 14 -10 23 -10 11 0 13 -3 5 -8 -6 -4 -11 -31 -11 -60 -1 -29
2 -50 6 -48 12 7 12 -37 0 -51 -7 -8 -7 -13 0 -13 5 0 10 -10 10 -22 0 -51 5
-88 12 -88 4 0 6 -10 5 -22 -1 -13 -3 -23 -4 -23 -8 0 -8 -36 -1 -40 5 -3 7 4
5 15 -2 11 0 18 5 15 10 -6 8 -24 -4 -44 -6 -10 -5 -12 2 -7 7 4 12 3 12 -3 0
-5 -8 -15 -18 -21 -15 -10 -14 -10 5 -5 18 5 21 2 18 -14 -2 -12 1 -21 8 -21
7 0 6 -4 -3 -10 -12 -8 -12 -10 5 -10 17 0 17 -2 5 -10 -10 -6 -11 -10 -2 -10
7 0 12 -14 12 -34 0 -19 5 -38 11 -42 6 -3 8 -17 4 -31 -3 -15 -2 -22 4 -18 6
3 13 -7 17 -22 3 -15 9 -37 12 -48 3 -11 5 -23 4 -27 -3 -10 38 -87 50 -94 5
-3 5 -11 -2 -19 -8 -9 -8 -15 0 -20 6 -3 8 -11 5 -16 -4 -5 -1 -9 6 -9 7 0 5
-9 -7 -22 -14 -17 -15 -20 -2 -9 21 15 38 7 38 -19 0 -10 5 -22 11 -25 17 -11
28 -49 16 -63 -7 -9 -5 -11 9 -6 10 4 16 4 12 -1 -4 -4 0 -14 8 -22 8 -8 12
-19 9 -24 -4 -5 -2 -9 3 -9 5 0 14 -11 20 -24 8 -18 7 -27 -4 -38 -13 -13 -13
-15 0 -15 8 0 13 4 10 9 -3 4 0 8 6 8 6 0 13 -13 16 -30 4 -16 12 -30 20 -30
7 0 16 -9 19 -20 3 -11 11 -20 17 -20 6 0 6 -6 -2 -15 -11 -13 -10 -14 5 -9
15 6 16 3 10 -17 -4 -13 -4 -21 0 -17 9 8 35 -16 35 -32 0 -6 4 -8 10 -5 5 3
10 2 10 -4 0 -5 -6 -12 -12 -14 -7 -3 -3 -6 10 -6 13 -1 22 -7 22 -17 0 -8 -4
-13 -8 -10 -5 3 -9 -1 -9 -8 0 -8 6 -12 12 -10 16 6 70 -45 80 -74 4 -13 9
-21 12 -18 8 8 49 -46 45 -59 -2 -5 0 -7 4 -2 9 9 44 -21 44 -39 0 -7 9 -16
20 -19 11 -3 21 -12 22 -18 4 -36 3 -43 -6 -57 -10 -13 -9 -13 6 -1 10 7 16
16 14 20 -3 4 -1 13 5 21 6 11 9 11 9 2 0 -15 137 -152 145 -144 3 3 5 -2 5
-12 0 -9 -4 -15 -8 -12 -5 3 -9 -2 -9 -11 0 -12 5 -11 19 7 10 12 18 17 18 11
0 -7 4 -9 10 -6 6 3 10 0 10 -7 0 -7 20 -26 45 -42 25 -15 60 -42 79 -60 18
-17 39 -32 47 -34 21 -5 39 -23 33 -33 -3 -5 -1 -9 5 -9 5 0 12 4 15 9 3 5 15
7 26 4 16 -4 18 -8 9 -19 -9 -11 -9 -14 0 -14 18 0 41 -26 33 -36 -4 -5 0 -3
10 4 17 13 25 8 24 -18 -1 -8 -6 -15 -13 -15 -6 0 -14 -2 -17 -6 -3 -3 5 -5
18 -5 18 0 23 5 21 18 -5 26 16 22 23 -4 5 -21 6 -21 13 -2 7 16 8 17 8 2 1
-10 6 -18 12 -18 8 0 8 -4 0 -14 -8 -10 -9 -16 -1 -21 6 -4 9 -1 8 7 -2 8 5
12 17 12 31 -2 65 -15 65 -25 0 -5 7 -5 17 -2 11 4 14 3 9 -5 -4 -7 -1 -12 8
-12 9 0 16 -8 16 -17 0 -12 3 -14 8 -7 9 14 50 0 57 -19 3 -7 14 -13 24 -14
29 -2 111 -42 111 -54 0 -6 4 -8 9 -4 5 3 17 -2 25 -11 15 -14 16 -14 16 2 0
16 1 16 19 0 11 -10 25 -15 30 -11 6 3 11 -2 11 -12 0 -14 2 -15 9 -5 7 11 10
10 15 -3 3 -9 3 -22 -1 -27 -4 -7 -1 -8 6 -4 7 5 10 15 7 23 -3 8 -1 11 4 8 6
-3 10 -14 11 -23 0 -14 2 -13 9 3 6 14 9 16 10 5 2 -8 2 -18 1 -22 0 -4 11 -4
25 -2 15 3 37 -2 51 -12 18 -11 23 -12 17 -3 -6 12 -5 12 9 0 9 -7 17 -10 17
-7 0 4 9 2 20 -4 12 -7 18 -16 13 -23 -4 -7 1 -6 11 2 10 9 20 11 24 5 4 -5
16 -9 27 -8 29 1 39 -7 24 -18 -10 -6 -7 -7 8 -3 13 3 28 3 35 -2 7 -4 18 -8
25 -9 6 -1 27 -7 45 -13 18 -5 44 -12 58 -13 14 -2 30 -7 37 -11 7 -4 28 -8
48 -9 34 -1 40 -9 36 -45 -1 -7 3 -13 8 -13 5 0 8 12 5 26 -3 16 -1 23 6 19 9
-6 68 -15 113 -18 9 -1 17 -8 17 -17 0 -12 2 -12 9 -2 7 12 30 13 41 2 3 -3
15 -11 27 -17 19 -11 21 -10 17 1 -5 12 1 13 39 1 25 -7 48 -11 51 -8 3 4 6
-1 6 -10 0 -9 4 -19 10 -22 5 -3 7 0 4 9 -5 12 1 14 33 11 21 -2 38 -5 38 -5
0 -1 20 -3 45 -5 24 -1 46 -7 48 -13 2 -6 16 -8 32 -6 21 4 30 0 33 -13 4 -16
5 -16 6 -1 1 14 8 17 34 14 17 -2 45 -4 61 -5 20 -1 27 -5 23 -16 -4 -8 -2
-17 4 -20 5 -4 9 -3 8 2 -5 28 2 35 29 29 15 -3 37 -9 50 -11 17 -4 21 -2 16
6 -5 8 -3 9 6 4 7 -4 43 -10 79 -12 117 -7 126 -8 138 -16 9 -6 11 -3 7 8 -5
13 -2 14 20 5 16 -6 35 -6 49 -1 13 5 30 5 37 1 8 -5 21 -5 31 0 9 5 19 7 22
4 9 -10 57 -12 57 -3 0 5 5 9 11 9 5 0 7 -5 3 -11 -4 -8 0 -8 15 0 12 7 27 9
33 5 7 -4 25 -8 40 -9 15 -1 38 -10 50 -21 l23 -19 -18 21 c-21 26 -16 32 23
26 18 -3 27 -9 23 -16 -3 -6 0 -6 8 1 14 14 33 18 25 5 -2 -4 4 -8 14 -8 10 0
16 5 13 12 -3 9 26 12 47 4 16 -6 86 3 89 11 1 6 10 2 18 -8 8 -10 11 -12 8
-5 -5 10 4 12 44 8 30 -3 51 -1 51 5 0 6 8 5 21 -2 15 -8 19 -8 15 0 -4 6 0
11 8 11 9 0 16 -6 16 -12 0 -10 2 -10 8 -1 4 6 23 14 44 18 30 6 37 4 41 -12
5 -17 5 -17 6 1 1 11 6 16 15 13 8 -3 17 -1 20 6 3 9 5 8 5 -1 1 -10 6 -10 22
-1 17 9 20 8 13 -3 -6 -10 -5 -11 7 -1 8 6 26 13 39 15 14 2 31 7 38 11 7 5
12 3 12 -5 0 -10 2 -10 9 1 5 7 14 10 20 7 6 -4 8 -12 5 -18 -4 -7 -2 -8 5 -4
6 4 9 12 6 17 -4 5 1 9 10 9 10 0 14 -5 10 -12 -4 -7 -1 -6 7 2 8 9 32 15 63
16 59 1 95 7 113 17 6 5 12 5 12 1 0 -3 7 -1 15 6 12 10 15 9 15 -6 1 -18 1
-18 11 -2 5 10 19 18 30 18 11 0 18 -4 15 -8 -3 -5 1 -9 9 -9 8 0 12 4 9 8
-11 18 33 28 60 14 14 -8 24 -10 21 -5 -3 5 4 14 15 20 11 6 20 8 20 4 0 -3 7
-1 15 6 9 7 38 13 65 13 32 0 47 4 43 11 -4 6 0 5 8 -1 12 -10 18 -10 27 -1
12 12 20 14 82 23 24 3 30 2 20 -5 -10 -6 -5 -8 18 -6 17 1 35 6 39 11 4 4 2
5 -4 1 -7 -4 -13 -3 -13 2 0 5 18 16 41 25 38 15 40 15 35 -1 -5 -15 -5 -15 6
-1 7 9 31 19 53 23 22 4 48 10 59 13 10 3 16 1 13 -4 -4 -5 0 -10 8 -10 11 0
12 4 4 14 -9 10 -5 15 16 23 34 13 38 13 32 -3 -3 -8 1 -14 8 -14 7 0 11 6 9
12 -5 11 65 38 83 33 4 -1 17 3 28 9 11 6 22 11 25 11 3 1 22 8 42 16 48 21
55 20 35 -2 -14 -15 -14 -19 -3 -19 8 0 14 3 14 6 -3 14 15 40 23 35 5 -2 17
0 28 5 14 8 21 8 24 -2 3 -6 6 -4 6 7 1 14 7 17 26 14 14 -3 23 -1 22 6 -1 6
4 10 11 8 6 -1 12 2 12 8 0 5 11 10 24 10 13 0 36 7 52 14 29 16 49 12 38 -6
-4 -7 -2 -8 5 -4 6 4 9 11 6 15 -7 13 41 31 52 20 6 -6 14 -4 23 6 7 8 19 15
26 15 8 0 14 5 14 10 0 6 8 10 18 10 10 0 24 6 30 12 10 10 17 10 35 -1 20
-13 21 -13 9 2 -18 21 1 31 30 16 19 -9 21 -9 11 1 -9 10 -7 17 12 31 13 11
29 19 37 19 7 0 24 7 37 16 19 14 25 14 32 3 7 -12 9 -12 9 0 0 8 6 11 16 7 8
-3 13 -2 10 2 -3 4 4 14 16 21 11 7 17 8 13 2 -3 -6 -1 -11 4 -11 6 0 11 5 11
11 0 5 5 7 10 4 6 -3 10 -1 10 5 0 7 7 10 14 7 10 -4 13 -1 9 9 -4 10 0 15 8
14 26 -4 40 0 34 10 -3 5 13 14 35 20 22 6 40 15 40 21 0 6 5 7 10 4 8 -5 7
-12 -2 -23 -9 -12 -6 -11 10 2 22 20 30 32 12 21 -5 -3 -7 0 -5 7 3 8 13 14
23 15 41 3 58 9 69 23 11 13 12 13 13 0 0 -11 4 -9 12 5 18 31 37 47 48 40 5
-3 10 -1 10 4 0 6 7 11 15 11 8 0 15 5 15 11 0 5 4 8 9 5 5 -3 20 5 33 17 14
13 35 23 47 22 12 -1 25 3 28 8 4 6 1 7 -8 2 -30 -17 7 13 42 33 20 12 40 18
45 14 5 -4 6 -3 2 2 -4 5 -3 15 3 23 12 14 34 19 25 5 -2 -4 4 -8 15 -8 11 0
15 4 10 9 -5 5 -7 16 -4 23 4 11 9 12 19 3 8 -7 17 -9 21 -5 3 3 1 6 -6 6 -7
0 -9 5 -6 10 5 8 12 7 23 -2 9 -7 13 -8 9 -2 -8 14 21 56 34 49 5 -4 9 -2 9 3
0 13 50 33 63 26 7 -4 9 -4 5 1 -8 8 42 52 54 47 5 -1 7 4 6 10 -2 7 5 12 14
12 10 -1 17 1 16 5 -2 20 4 32 14 29 14 -5 19 -1 78 55 38 35 80 52 64 25 -5
-9 -3 -9 9 1 9 7 14 17 11 23 -9 14 15 38 32 31 8 -3 14 1 14 11 0 9 5 16 11
16 5 0 7 6 3 13 -4 6 3 3 17 -8 19 -16 21 -17 10 -2 -13 16 -12 19 7 24 12 3
25 16 28 29 3 13 12 24 20 24 8 0 14 5 14 11 0 6 7 8 17 5 10 -4 14 -4 10 0
-3 4 3 16 16 26 12 11 22 24 22 29 0 5 12 19 26 32 14 12 31 32 38 45 7 14 18
21 27 18 7 -3 13 -2 11 2 -1 4 26 36 61 71 34 35 60 66 57 69 -3 3 5 12 16 20
18 12 23 13 31 1 7 -10 8 -9 4 7 -4 14 3 30 25 52 17 18 27 32 23 32 -5 0 -1
5 9 11 9 5 20 8 25 6 4 -3 8 5 8 18 2 28 32 75 49 75 6 0 17 12 23 26 7 14 17
22 22 19 6 -3 10 1 10 9 0 9 4 16 9 16 5 0 12 11 15 25 4 14 13 25 22 25 8 0
17 8 21 18 3 9 18 29 32 44 14 14 36 40 49 57 15 20 29 28 43 26 11 -2 17 0
14 6 -4 5 -11 7 -16 4 -16 -10 -10 8 10 29 10 12 23 35 28 51 6 17 15 29 21
28 6 -2 9 4 5 13 -3 8 -2 14 3 13 19 -3 37 1 31 7 -8 9 31 81 60 110 12 12 25
34 29 48 3 14 9 26 13 26 4 0 13 12 20 26 7 17 17 24 27 20 10 -4 13 -2 7 7
-14 22 -12 39 3 33 8 -3 13 -2 9 3 -3 5 2 16 10 25 8 8 14 21 13 28 -2 7 2 12
7 11 6 -1 12 10 13 24 3 33 9 40 24 25 7 -7 16 -12 22 -12 5 0 2 6 -8 13 -19
14 -12 52 8 40 6 -4 6 -1 -2 9 -10 13 -10 17 3 22 8 3 15 15 15 26 0 11 5 20
11 20 5 0 8 4 5 8 -3 5 2 21 10 36 7 16 14 35 14 42 0 8 4 14 9 14 6 0 10 8
10 18 2 49 11 67 24 45 2 -5 2 -2 1 5 -2 7 0 20 6 30 5 9 11 30 15 45 3 17 10
25 17 21 7 -5 8 -2 1 11 -11 19 -6 55 7 55 5 0 9 12 9 28 0 15 3 38 6 52 4 14
7 31 7 38 1 7 7 11 15 8 10 -4 11 -1 3 14 -15 29 -12 43 8 35 13 -5 14 -3 5 6
-13 13 -6 42 8 33 5 -3 5 6 -1 20 -5 14 -6 26 -2 26 5 0 9 17 10 38 2 32 6 73
11 93 0 3 13 5 27 3 14 -1 23 1 19 4 -3 4 -14 7 -23 7 -18 0 -23 28 -10 56 4
9 2 22 -5 29 -10 10 -9 12 4 7 9 -3 16 0 16 9 0 7 -4 11 -7 9 -4 -3 -7 7 -7
20 0 14 3 28 8 31 5 3 9 10 9 15 0 6 -6 7 -12 3 -9 -5 -9 -2 1 9 10 13 10 17
1 17 -9 0 -9 4 1 17 12 14 12 15 1 9 -11 -7 -12 -4 -3 12 8 14 8 23 1 27 -8 5
-7 12 1 22 10 12 10 16 -2 24 -13 8 -5 14 15 10 5 -1 5 4 -1 11 -6 7 -9 33 -8
58 1 25 -1 49 -4 55 -10 18 -8 70 3 84 8 11 8 13 -1 7 -9 -5 -13 2 -14 26 -1
53 -13 144 -28 201 -6 26 -6 37 3 37 6 0 4 5 -4 10 -13 9 -13 10 0 11 8 1 19
1 23 0 5 -1 6 3 2 8 -3 6 -12 8 -19 5 -21 -8 -44 65 -25 77 11 7 9 9 -5 9 -20
0 -20 0 0 15 16 13 16 14 2 9 -10 -3 -19 -2 -19 2 -1 5 -3 18 -5 29 -1 11 -5
31 -7 45 -2 14 -11 42 -20 64 -10 21 -17 47 -17 57 0 11 -5 19 -11 19 -5 0 -8
4 -4 10 3 5 1 17 -4 27 -22 38 -40 94 -29 87 6 -4 3 4 -8 18 -10 14 -22 24
-25 22 -3 -2 -4 8 -1 21 2 15 0 25 -7 25 -6 0 -11 5 -11 11 0 7 -9 30 -19 53
-42 89 -55 122 -58 139 -2 10 -10 25 -18 34 -8 8 -13 19 -10 24 4 5 1 9 -5 9
-6 0 -8 5 -5 10 3 6 -1 13 -9 16 -9 3 -16 15 -16 25 0 10 -4 19 -10 19 -5 0
-10 5 -10 11 0 5 4 8 8 5 4 -2 14 0 22 5 11 7 7 8 -13 5 -32 -5 -50 19 -26 35
11 8 10 9 -4 7 -11 -2 -24 8 -35 27 -9 16 -25 38 -34 49 -10 10 -15 23 -12 28
3 5 -8 23 -26 41 -20 20 -29 39 -26 50 2 11 2 16 -1 13 -12 -12 -34 34 -28 57
4 16 4 18 -3 8 -11 -15 -36 -6 -26 10 3 5 0 8 -6 7 -12 -3 -55 59 -67 95 -3 9
-10 17 -17 17 -6 0 -4 5 4 10 12 8 11 10 -7 10 -21 0 -28 10 -24 33 0 4 -5 7
-13 7 -7 0 -22 12 -32 27 -10 14 -26 34 -34 43 -8 9 -16 22 -18 29 -1 7 -14
24 -27 39 -14 15 -23 33 -20 40 3 7 0 10 -5 7 -5 -3 -17 4 -27 16 -10 12 -28
31 -40 42 -12 11 -20 24 -17 29 3 4 0 8 -5 8 -6 0 -11 7 -11 15 0 8 -6 14 -12
12 -7 -1 -12 6 -12 15 1 10 -4 14 -12 11 -8 -3 -14 0 -14 7 0 13 -53 66 -72
72 -6 2 -11 19 -11 36 0 20 -3 28 -8 20 -6 -9 -12 -8 -27 5 -10 9 -22 15 -25
12 -4 -3 -5 -2 -2 1 2 4 -3 13 -11 21 -8 8 -12 19 -8 24 3 5 2 9 -3 8 -4 -1
-15 -1 -23 0 -13 1 -13 2 0 11 13 8 12 10 -2 10 -16 0 -23 11 -19 32 0 5 -2 7
-7 6 -18 -4 -59 26 -71 52 -7 16 -16 29 -19 29 -21 -3 -24 3 -6 16 19 14 19
14 -1 9 -21 -4 -85 46 -85 68 0 9 3 9 12 0 15 -15 28 -15 28 -1 0 5 -4 8 -9 4
-6 -3 -14 3 -20 12 -6 10 -11 13 -11 7 0 -19 -25 -11 -45 14 -11 16 -13 22 -4
17 12 -7 12 -5 1 6 -11 11 -14 12 -21 1 -6 -11 -10 -10 -16 5 -5 10 -9 21 -9
25 -2 11 -17 23 -29 23 -7 0 -12 5 -12 12 0 6 -4 15 -9 20 -5 5 -6 3 -2 -4 11
-20 -9 -15 -35 7 -21 17 -22 21 -9 30 8 5 10 10 5 10 -6 0 -16 -5 -23 -12 -9
-9 -12 -9 -12 0 0 7 -10 12 -21 12 -16 0 -20 5 -17 18 3 11 0 19 -7 19 -7 0
-11 -7 -7 -15 4 -11 -2 -10 -24 4 -16 10 -31 21 -34 25 -10 13 -90 59 -90 52
0 -4 -5 -2 -11 4 -8 8 -8 17 0 30 7 15 7 20 -4 20 -7 0 -11 -6 -8 -14 3 -7 0
-13 -6 -13 -6 0 -11 5 -11 11 0 6 -7 8 -16 5 -8 -3 -13 -2 -10 3 3 5 -4 11
-17 15 -19 5 -20 8 -7 17 13 9 12 10 -3 5 -20 -7 -50 17 -39 30 4 5 -2 2 -12
-6 -11 -8 -17 -10 -13 -4 4 7 -2 14 -13 17 -11 3 -20 11 -20 17 0 9 4 9 18 -1
9 -7 6 -1 -7 14 -25 28 -43 39 -22 13 8 -10 9 -16 1 -21 -5 -3 -10 -2 -10 3 0
4 -16 16 -36 25 -23 12 -34 23 -30 32 3 8 0 12 -8 9 -7 -2 -23 4 -36 16 -13
11 -27 20 -32 20 -4 0 -8 8 -8 18 0 13 -2 14 -9 3 -7 -11 -9 -11 -13 0 -3 8 2
20 11 27 9 8 10 11 4 7 -24 -12 -53 -14 -53 -4 0 5 -8 13 -17 16 -23 9 -44 29
-37 36 3 2 -7 7 -21 11 -14 4 -25 11 -25 16 0 6 -7 10 -15 10 -9 0 -18 7 -21
15 -4 8 -13 15 -21 15 -9 0 -13 6 -10 14 3 8 -1 13 -10 12 -9 0 -18 5 -21 13
-3 9 0 11 8 6 8 -5 11 -4 6 3 -3 6 -16 9 -28 7 -12 -3 -26 1 -30 8 -12 19 -9
30 5 18 10 -8 14 -7 14 4 0 8 -3 13 -5 10 -3 -3 -12 1 -20 8 -13 9 -14 9 -8 0
11 -19 -7 -16 -26 5 -9 9 -28 25 -43 35 -24 17 -25 20 -9 31 13 10 14 15 4 21
-9 6 -11 4 -5 -4 5 -9 2 -12 -11 -9 -11 2 -18 9 -17 15 2 7 -6 10 -17 8 -13
-3 -20 2 -20 12 0 10 6 13 16 9 9 -3 12 -2 9 5 -4 6 -14 8 -22 5 -35 -14 -73
34 -51 63 11 14 10 14 -7 -1 -15 -12 -25 -14 -38 -7 -9 6 -15 14 -12 20 4 5
-1 9 -10 9 -11 0 -15 5 -11 15 3 10 -1 15 -13 15 -23 0 -45 25 -35 41 4 7 3 9
-3 6 -6 -4 -18 2 -28 13 -10 11 -15 20 -11 20 6 0 -29 31 -64 58 -2 1 1 7 9
11 10 6 9 10 -4 14 -11 5 -14 3 -9 -6 4 -6 -2 -3 -14 7 -25 22 -29 41 -6 32 9
-3 12 -2 9 4 -4 6 -12 9 -19 8 -7 -2 -26 12 -41 30 -23 28 -26 36 -14 44 10 7
8 7 -9 3 -22 -6 -23 -4 -19 24 3 18 1 29 -4 25 -5 -3 -7 -10 -4 -15 4 -5 1 -9
-4 -9 -6 0 -11 5 -11 10 0 6 -11 20 -25 32 -14 12 -23 28 -20 36 2 7 1 11 -4
8 -5 -3 -16 9 -25 27 -8 17 -16 28 -16 22 0 -5 -7 3 -15 19 -9 16 -13 36 -10
43 2 8 1 12 -4 9 -11 -7 -56 61 -73 113 -8 22 -17 38 -21 34 -6 -5 -9 12 -6
33 0 4 -5 10 -11 14 -7 4 -12 19 -12 34 0 14 -4 26 -9 26 -5 0 -9 6 -9 14 0 7
-9 34 -20 58 -20 47 -34 107 -33 145 1 13 -3 21 -8 18 -4 -3 -7 13 -5 35 2 22
0 43 -5 45 -8 6 -7 25 4 43 5 6 5 12 1 12 -3 0 -1 6 5 14 8 10 9 16 1 21 -5 3
-10 11 -10 16 0 6 5 7 12 3 7 -4 8 -3 4 5 -4 6 -2 19 6 28 7 9 8 14 2 10 -7
-4 -15 0 -18 9 -4 10 -2 13 6 8 7 -5 9 -2 6 8 -4 8 2 30 13 47 11 18 15 30 9
26 -6 -3 -7 0 -4 9 3 9 11 13 18 9 7 -5 7 -2 -1 8 -7 9 -8 20 -3 29 5 8 6 18
4 22 -3 4 -1 8 4 8 6 0 8 9 5 20 -4 15 0 20 13 20 11 0 15 3 8 8 -5 4 -11 25
-12 46 -2 33 -1 37 12 27 10 -8 16 -9 21 -1 4 6 1 9 -6 8 -7 -2 -14 2 -14 7
-1 6 -4 17 -7 25 -13 32 -16 60 -7 66 5 3 9 11 9 17 0 8 -3 7 -9 -2 -7 -11
-11 -8 -17 10 -4 13 -7 29 -6 36 2 6 -2 14 -8 18 -5 3 -10 15 -10 26 0 10 -4
19 -10 19 -5 0 -10 8 -10 18 0 10 -6 24 -12 31 -11 11 -10 13 2 7 8 -4 4 1 -9
12 -15 12 -21 24 -16 32 5 8 4 11 -2 7 -6 -4 -14 0 -17 9 -3 8 -11 12 -17 8
-8 -4 -9 1 -4 17 3 13 3 20 -2 14 -10 -12 -36 -19 -29 -7 2 4 -6 16 -19 26
-13 10 -22 23 -21 29 2 7 1 9 -1 5 -3 -5 -11 -8 -19 -8 -9 0 -12 5 -9 10 3 6
-3 10 -13 10 -11 0 -27 10 -36 23 -10 14 -14 16 -10 4 5 -13 2 -16 -10 -11
-10 4 -15 13 -12 20 3 9 -1 11 -12 7 -14 -5 -15 -3 -4 8 6 7 12 17 12 23 0 5
-6 1 -14 -9 -15 -21 -52 -30 -61 -15 -4 6 -11 8 -16 5 -5 -4 -9 1 -9 9 0 9 -5
16 -11 16 -5 0 -7 -4 -4 -10 3 -5 2 -10 -4 -10 -5 0 -12 6 -14 13 -4 9 -8 8
-16 -3 -7 -9 -11 -10 -11 -3 0 10 -48 12 -57 3 -8 -7 -29 -4 -35 5 -5 6 -8 4
-8 -5 0 -13 -1 -13 -10 0 -7 11 -10 11 -10 2z m2415 -3022 c3 -5 1 -10 -4 -10
-6 0 -11 5 -11 10 0 6 2 10 4 10 3 0 8 -4 11 -10z m-6280 -910 c3 -5 1 -10 -4
-10 -6 0 -11 5 -11 10 0 6 2 10 4 10 3 0 8 -4 11 -10z m-600 -960 c3 -5 1 -10
-4 -10 -6 0 -11 5 -11 10 0 6 2 10 4 10 3 0 8 -4 11 -10z"/>
<path d="M6475 11020 c-3 -5 -1 -10 4 -10 6 0 11 5 11 10 0 6 -2 10 -4 10 -3
0 -8 -4 -11 -10z"/>
<path d="M6915 11021 c-3 -5 -2 -12 3 -15 5 -3 9 1 9 9 0 17 -3 19 -12 6z"/>
<path d="M6936 10992 c-2 -4 4 -8 14 -8 10 0 16 4 14 8 -3 4 -9 8 -14 8 -5 0
-11 -4 -14 -8z"/>
<path d="M7010 10965 c0 -5 5 -17 10 -25 5 -8 10 -10 10 -5 0 6 -5 17 -10 25
-5 8 -10 11 -10 5z"/>
<path d="M6330 10939 c0 -5 5 -7 10 -4 6 3 10 8 10 11 0 2 -4 4 -10 4 -5 0
-10 -5 -10 -11z"/>
<path d="M6159 10778 c-6 -20 -6 -39 0 -42 4 -3 7 6 7 20 0 20 -4 32 -7 22z"/>
<path d="M6136 10722 c-3 -5 1 -9 9 -9 8 0 12 4 9 9 -3 4 -7 8 -9 8 -2 0 -6
-4 -9 -8z"/>
<path d="M6090 10700 c0 -5 5 -10 11 -10 5 0 7 5 4 10 -3 6 -8 10 -11 10 -2 0
-4 -4 -4 -10z"/>
<path d="M5970 10579 c0 -5 5 -7 10 -4 6 3 10 8 10 11 0 2 -4 4 -10 4 -5 0
-10 -5 -10 -11z"/>
<path d="M7206 10578 c3 -5 10 -6 15 -3 13 9 11 12 -6 12 -8 0 -12 -4 -9 -9z"/>
<path d="M5840 10449 c0 -5 -4 -8 -9 -4 -5 3 -12 1 -15 -4 -4 -5 2 -8 11 -7
15 3 33 26 19 26 -3 0 -6 -5 -6 -11z"/>
<path d="M5756 10402 c-3 -5 1 -9 9 -9 8 0 12 4 9 9 -3 4 -7 8 -9 8 -2 0 -6
-4 -9 -8z"/>
<path d="M5704 10362 c4 -3 14 -7 22 -8 9 -1 13 0 10 4 -4 3 -14 7 -22 8 -9 1
-13 0 -10 -4z"/>
<path d="M7189 10357 c6 -8 7 -18 3 -22 -4 -5 -1 -5 6 -1 10 6 10 11 1 22 -6
8 -14 14 -16 14 -3 0 0 -6 6 -13z"/>
<path d="M7135 10089 c-4 -6 -5 -12 -2 -15 2 -3 7 2 10 11 7 17 1 20 -8 4z"/>
<path d="M5340 10016 c7 -7 13 -7 20 0 6 6 3 10 -10 10 -13 0 -16 -4 -10 -10z"/>
<path d="M7153 9953 c0 -9 4 -10 14 -2 7 6 13 12 13 14 0 1 -6 2 -13 2 -8 0
-14 -6 -14 -14z"/>
<path d="M5275 9951 c-3 -5 -2 -12 3 -15 5 -3 9 1 9 9 0 17 -3 19 -12 6z"/>
<path d="M5234 9926 c1 -8 5 -18 8 -22 4 -3 5 1 4 10 -1 8 -5 18 -8 22 -4 3
-5 -1 -4 -10z"/>
<path d="M7155 9921 c-3 -5 -2 -12 3 -15 5 -3 9 1 9 9 0 17 -3 19 -12 6z"/>
<path d="M5189 9883 c-13 -16 -12 -17 4 -4 9 7 17 15 17 17 0 8 -8 3 -21 -13z"/>
<path d="M7195 9840 c-3 -5 -1 -10 4 -10 6 0 11 5 11 10 0 6 -2 10 -4 10 -3 0
-8 -4 -11 -10z"/>
<path d="M7190 9816 c0 -2 8 -10 18 -17 15 -13 16 -12 3 4 -13 16 -21 21 -21
13z"/>
<path d="M7220 9725 c0 -2 6 -8 13 -14 10 -8 14 -7 14 2 0 8 -6 14 -14 14 -7
0 -13 -1 -13 -2z"/>
<path d="M7251 9673 c7 -12 15 -20 18 -17 3 2 -3 12 -13 22 -17 16 -18 16 -5
-5z"/>
<path d="M7272 9611 c7 -9 13 -18 15 -20 1 -2 1 5 0 16 0 11 -7 20 -14 20 -10
0 -10 -4 -1 -16z"/>
<path d="M4855 9560 c-3 -5 -1 -10 4 -10 6 0 11 5 11 10 0 6 -2 10 -4 10 -3 0
-8 -4 -11 -10z"/>
<path d="M7330 9519 c0 -5 5 -7 10 -4 6 3 10 8 10 11 0 2 -4 4 -10 4 -5 0 -10
-5 -10 -11z"/>
<path d="M7350 9465 c0 -7 30 -13 34 -7 3 4 -4 9 -15 9 -10 1 -19 0 -19 -2z"/>
<path d="M7394 9413 c16 -20 36 -23 36 -6 0 4 -3 3 -7 0 -3 -4 -16 1 -27 10
-21 18 -21 18 -2 -4z"/>
<path d="M4635 9330 c3 -5 8 -10 11 -10 2 0 4 5 4 10 0 6 -5 10 -11 10 -5 0
-7 -4 -4 -10z"/>
<path d="M7536 9233 c-6 -14 -5 -15 5 -6 7 7 10 15 7 18 -3 3 -9 -2 -12 -12z"/>
<path d="M4475 9191 c-3 -5 -2 -12 3 -15 5 -3 9 1 9 9 0 17 -3 19 -12 6z"/>
<path d="M7590 9176 c0 -2 8 -10 18 -17 15 -13 16 -12 3 4 -13 16 -21 21 -21
13z"/>
<path d="M7630 9106 c0 -2 7 -7 16 -10 8 -3 12 -2 9 4 -6 10 -25 14 -25 6z"/>
<path d="M4346 9038 c3 -5 10 -6 15 -3 13 9 11 12 -6 12 -8 0 -12 -4 -9 -9z"/>
<path d="M7726 9002 c-3 -5 1 -9 9 -9 8 0 12 4 9 9 -3 4 -7 8 -9 8 -2 0 -6 -4
-9 -8z"/>
<path d="M7793 8963 c4 -3 1 -13 -6 -22 -11 -14 -10 -14 5 -2 16 12 16 31 1
31 -4 0 -3 -3 0 -7z"/>
<path d="M7833 8895 c0 -8 4 -12 9 -9 5 3 6 10 3 15 -9 13 -12 11 -12 -6z"/>
<path d="M7957 8795 c-4 -8 -3 -16 1 -19 4 -3 9 4 9 15 2 23 -3 25 -10 4z"/>
<path d="M8075 8721 c-3 -5 -2 -12 3 -15 5 -3 9 1 9 9 0 17 -3 19 -12 6z"/>
<path d="M4010 8699 c0 -5 5 -7 10 -4 6 3 10 8 10 11 0 2 -4 4 -10 4 -5 0 -10
-5 -10 -11z"/>
<path d="M3950 8641 c0 -6 4 -13 10 -16 6 -3 7 1 4 9 -7 18 -14 21 -14 7z"/>
<path d="M8213 8605 c0 -8 4 -12 9 -9 5 3 6 10 3 15 -9 13 -12 11 -12 -6z"/>
<path d="M8230 8561 c0 -6 4 -13 10 -16 6 -3 7 1 4 9 -7 18 -14 21 -14 7z"/>
<path d="M8266 8538 c3 -5 10 -6 15 -3 13 9 11 12 -6 12 -8 0 -12 -4 -9 -9z"/>
<path d="M8350 8481 c0 -6 4 -13 10 -16 6 -3 7 1 4 9 -7 18 -14 21 -14 7z"/>
<path d="M3753 8405 c0 -8 4 -12 9 -9 4 3 8 9 8 15 0 5 -4 9 -8 9 -5 0 -9 -7
-9 -15z"/>
<path d="M8430 8403 c0 -1 8 -7 18 -12 13 -7 19 -6 19 2 0 7 -9 13 -19 13 -10
0 -18 -1 -18 -3z"/>
<path d="M8695 8249 c-4 -6 -5 -12 -2 -15 2 -3 7 2 10 11 7 17 1 20 -8 4z"/>
<path d="M8745 8210 c-3 -6 1 -7 9 -4 18 7 21 14 7 14 -6 0 -13 -4 -16 -10z"/>
<path d="M3557 8199 c7 -7 15 -10 18 -7 3 3 -2 9 -12 12 -14 6 -15 5 -6 -5z"/>
<path d="M8795 8179 c-3 -4 2 -6 10 -5 21 3 28 13 10 13 -9 0 -18 -4 -20 -8z"/>
<path d="M3511 8147 c-13 -21 -12 -21 5 -5 10 10 16 20 13 22 -3 3 -11 -5 -18
-17z"/>
<path d="M8935 8091 c-3 -5 -2 -12 3 -15 5 -3 9 1 9 9 0 17 -3 19 -12 6z"/>
<path d="M3446 8082 c-3 -5 1 -9 9 -9 8 0 12 4 9 9 -3 4 -7 8 -9 8 -2 0 -6 -4
-9 -8z"/>
<path d="M8993 8065 c0 -8 4 -12 9 -9 5 3 6 10 3 15 -9 13 -12 11 -12 -6z"/>
<path d="M9035 8009 c-4 -6 -4 -13 -1 -16 3 -4 6 -1 6 6 0 7 5 9 12 5 7 -4 8
-3 4 4 -9 15 -13 15 -21 1z"/>
<path d="M9084 7979 c-3 -6 -2 -15 4 -21 6 -6 12 -6 17 3 6 8 4 10 -5 4 -10
-6 -12 -4 -7 8 7 19 2 23 -9 6z"/>
<path d="M3270 7896 c0 -2 8 -10 18 -17 15 -13 16 -12 3 4 -13 16 -21 21 -21
13z"/>
<path d="M9150 7896 c0 -2 7 -9 15 -16 13 -11 14 -10 9 4 -5 14 -24 23 -24 12z"/>
<path d="M9313 7735 c0 -8 4 -12 9 -9 5 3 6 10 3 15 -9 13 -12 11 -12 -6z"/>
<path d="M3113 7665 c0 -8 4 -12 9 -9 5 3 6 10 3 15 -9 13 -12 11 -12 -6z"/>
<path d="M9386 7662 c-3 -5 1 -9 9 -9 8 0 12 4 9 9 -3 4 -7 8 -9 8 -2 0 -6 -4
-9 -8z"/>
<path d="M9600 7440 c-9 -6 -10 -10 -3 -10 6 0 15 5 18 10 8 12 4 12 -15 0z"/>
<path d="M9630 7376 c0 -2 8 -10 18 -17 15 -13 16 -12 3 4 -13 16 -21 21 -21
13z"/>
<path d="M9695 7300 c3 -5 8 -10 11 -10 2 0 4 5 4 10 0 6 -5 10 -11 10 -5 0
-7 -4 -4 -10z"/>
<path d="M2816 7282 c-3 -5 1 -9 9 -9 8 0 12 4 9 9 -3 4 -7 8 -9 8 -2 0 -6 -4
-9 -8z"/>
<path d="M9733 7245 c0 -8 4 -15 9 -15 4 0 8 4 8 9 0 6 -4 12 -8 15 -5 3 -9
-1 -9 -9z"/>
<path d="M9754 7202 c4 -3 14 -7 22 -8 9 -1 13 0 10 4 -4 3 -14 7 -22 8 -9 1
-13 0 -10 -4z"/>
<path d="M2590 6960 c0 -5 5 -10 11 -10 5 0 7 5 4 10 -3 6 -8 10 -11 10 -2 0
-4 -4 -4 -10z"/>
<path d="M2516 6873 c-6 -14 -5 -15 5 -6 7 7 10 15 7 18 -3 3 -9 -2 -12 -12z"/>
<path d="M10010 6856 c0 -2 8 -10 18 -17 15 -13 16 -12 3 4 -13 16 -21 21 -21
13z"/>
<path d="M10050 6821 c0 -6 4 -13 10 -16 6 -3 7 1 4 9 -7 18 -14 21 -14 7z"/>
<path d="M10060 6780 c8 -5 20 -10 25 -10 6 0 3 5 -5 10 -8 5 -19 10 -25 10
-5 0 -3 -5 5 -10z"/>
<path d="M10207 6539 c7 -7 15 -10 18 -7 3 3 -2 9 -12 12 -14 6 -15 5 -6 -5z"/>
<path d="M10270 6382 c0 -5 7 -9 15 -9 8 0 12 4 9 9 -3 4 -9 8 -15 8 -5 0 -9
-4 -9 -8z"/>
<path d="M10305 6300 c-3 -6 1 -7 9 -4 18 7 21 14 7 14 -6 0 -13 -4 -16 -10z"/>
<path d="M2110 6201 c0 -6 4 -13 10 -16 6 -3 7 1 4 9 -7 18 -14 21 -14 7z"/>
<path d="M10366 6178 c3 -5 10 -6 15 -3 13 9 11 12 -6 12 -8 0 -12 -4 -9 -9z"/>
<path d="M10385 6120 c-3 -6 1 -7 9 -4 18 7 21 14 7 14 -6 0 -13 -4 -16 -10z"/>
<path d="M10445 5880 c-3 -5 -1 -10 4 -10 6 0 11 5 11 10 0 6 -2 10 -4 10 -3
0 -8 -4 -11 -10z"/>
<path d="M10470 5796 c7 -7 13 -7 20 0 6 6 3 10 -10 10 -13 0 -16 -4 -10 -10z"/>
<path d="M10500 5646 c0 -2 8 -10 18 -17 15 -13 16 -12 3 4 -13 16 -21 21 -21
13z"/>
<path d="M1813 5585 c0 -8 4 -12 9 -9 5 3 6 10 3 15 -9 13 -12 11 -12 -6z"/>
<path d="M10547 5559 c7 -7 15 -10 18 -7 3 3 -2 9 -12 12 -14 6 -15 5 -6 -5z"/>
<path d="M10549 5383 c-13 -16 -12 -17 4 -4 9 7 17 15 17 17 0 8 -8 3 -21 -13z"/>
<path d="M1696 5307 c3 -10 9 -15 12 -12 3 3 0 11 -7 18 -10 9 -11 8 -5 -6z"/>
<path d="M10539 5193 c-12 -16 -12 -17 2 -6 9 7 20 9 24 5 5 -4 5 -1 1 6 -9
16 -11 15 -27 -5z"/>
<path d="M10545 5140 c-3 -6 1 -7 9 -4 18 7 21 14 7 14 -6 0 -13 -4 -16 -10z"/>
<path d="M1633 5085 c0 -8 4 -12 9 -9 5 3 6 10 3 15 -9 13 -12 11 -12 -6z"/>
<path d="M1516 4687 c3 -10 9 -15 12 -12 3 3 0 11 -7 18 -10 9 -11 8 -5 -6z"/>
<path d="M1495 4460 c-3 -6 1 -7 9 -4 18 7 21 14 7 14 -6 0 -13 -4 -16 -10z"/>
<path d="M10395 4360 c-3 -5 -1 -10 4 -10 6 0 11 5 11 10 0 6 -2 10 -4 10 -3
0 -8 -4 -11 -10z"/>
<path d="M1477 4315 c-4 -8 -3 -16 1 -19 4 -3 9 4 9 15 2 23 -3 25 -10 4z"/>
<path d="M1470 4239 c0 -5 5 -7 10 -4 6 3 10 8 10 11 0 2 -4 4 -10 4 -5 0 -10
-5 -10 -11z"/>
<path d="M10326 4182 c-3 -5 1 -9 9 -9 8 0 12 4 9 9 -3 4 -7 8 -9 8 -2 0 -6
-4 -9 -8z"/>
<path d="M10205 3940 c-3 -6 1 -7 9 -4 18 7 21 14 7 14 -6 0 -13 -4 -16 -10z"/>
<path d="M10195 3911 c-3 -5 -2 -12 3 -15 5 -3 9 1 9 9 0 17 -3 19 -12 6z"/>
<path d="M10115 3811 c-3 -5 -2 -12 3 -15 5 -3 9 1 9 9 0 17 -3 19 -12 6z"/>
<path d="M1491 3784 c0 -11 3 -14 6 -6 3 7 2 16 -1 19 -3 4 -6 -2 -5 -13z"/>
<path d="M10069 3743 c-13 -16 -12 -17 4 -4 16 13 21 21 13 21 -2 0 -10 -8
-17 -17z"/>
<path d="M1486 3707 c3 -10 9 -15 12 -12 3 3 0 11 -7 18 -10 9 -11 8 -5 -6z"/>
<path d="M1495 3620 c3 -5 8 -10 11 -10 2 0 4 5 4 10 0 6 -5 10 -11 10 -5 0
-7 -4 -4 -10z"/>
<path d="M9975 3609 c-4 -6 -5 -12 -2 -15 2 -3 7 2 10 11 7 17 1 20 -8 4z"/>
<path d="M9850 3419 c0 -5 5 -7 10 -4 6 3 10 8 10 11 0 2 -4 4 -10 4 -5 0 -10
-5 -10 -11z"/>
<path d="M9716 3233 c-6 -14 -5 -15 5 -6 7 7 10 15 7 18 -3 3 -9 -2 -12 -12z"/>
<path d="M1595 3191 c-3 -5 -2 -12 3 -15 5 -3 9 1 9 9 0 17 -3 19 -12 6z"/>
<path d="M1626 3122 c-3 -5 1 -9 9 -9 8 0 12 4 9 9 -3 4 -7 8 -9 8 -2 0 -6 -4
-9 -8z"/>
<path d="M9595 3120 c-3 -5 -1 -10 4 -10 6 0 11 5 11 10 0 6 -2 10 -4 10 -3 0
-8 -4 -11 -10z"/>
<path d="M1636 3073 c-6 -14 -5 -15 5 -6 7 7 10 15 7 18 -3 3 -9 -2 -12 -12z"/>
<path d="M9560 3080 c-12 -7 -10 -9 7 -7 12 0 19 5 17 9 -6 10 -6 10 -24 -2z"/>
<path d="M9486 2998 c3 -5 10 -6 15 -3 13 9 11 12 -6 12 -8 0 -12 -4 -9 -9z"/>
<path d="M9476 2967 c3 -10 9 -15 12 -12 3 3 0 11 -7 18 -10 9 -11 8 -5 -6z"/>
<path d="M9450 2939 c0 -5 5 -7 10 -4 6 3 10 8 10 11 0 2 -4 4 -10 4 -5 0 -10
-5 -10 -11z"/>
<path d="M9416 2913 c-6 -14 -5 -15 5 -6 7 7 10 15 7 18 -3 3 -9 -2 -12 -12z"/>
<path d="M9396 2878 c3 -5 10 -6 15 -3 13 9 11 12 -6 12 -8 0 -12 -4 -9 -9z"/>
<path d="M1730 2866 c0 -2 7 -7 16 -10 8 -3 12 -2 9 4 -6 10 -25 14 -25 6z"/>
<path d="M9370 2859 c0 -5 5 -7 10 -4 6 3 10 8 10 11 0 2 -4 4 -10 4 -5 0 -10
-5 -10 -11z"/>
<path d="M9310 2818 c0 -4 4 -8 9 -8 6 0 12 4 15 8 3 5 -1 9 -9 9 -8 0 -15 -4
-15 -9z"/>
<path d="M1775 2809 c-4 -6 -5 -12 -2 -15 2 -3 7 2 10 11 7 17 1 20 -8 4z"/>
<path d="M9270 2766 c0 -2 7 -7 16 -10 8 -3 12 -2 9 4 -6 10 -25 14 -25 6z"/>
<path d="M9160 2660 c-9 -6 -10 -10 -3 -10 6 0 15 5 18 10 8 12 4 12 -15 0z"/>
<path d="M8995 2530 c-4 -6 -10 -8 -15 -5 -4 3 -14 -3 -21 -13 -12 -15 -12
-16 2 -5 9 7 18 11 21 8 3 -3 11 1 18 10 7 8 10 15 7 15 -3 0 -9 -5 -12 -10z"/>
<path d="M1970 2502 c0 -5 7 -9 15 -9 8 0 12 4 9 9 -3 4 -9 8 -15 8 -5 0 -9
-4 -9 -8z"/>
<path d="M8890 2456 c0 -2 8 -10 18 -17 15 -13 16 -12 3 4 -13 16 -21 21 -21
13z"/>
<path d="M1996 2438 c3 -5 10 -6 15 -3 13 9 11 12 -6 12 -8 0 -12 -4 -9 -9z"/>
<path d="M2067 2399 c7 -7 15 -10 18 -7 3 3 -2 9 -12 12 -14 6 -15 5 -6 -5z"/>
<path d="M8840 2402 c0 -5 7 -9 15 -9 8 0 12 4 9 9 -3 4 -9 8 -15 8 -5 0 -9
-4 -9 -8z"/>
<path d="M8800 2360 c-9 -6 -10 -10 -3 -10 6 0 15 5 18 10 8 12 4 12 -15 0z"/>
<path d="M8746 2338 c3 -4 9 -8 15 -8 5 0 9 4 9 8 0 5 -7 9 -15 9 -8 0 -12 -4
-9 -9z"/>
<path d="M8710 2319 c0 -5 5 -7 10 -4 6 3 10 8 10 11 0 2 -4 4 -10 4 -5 0 -10
-5 -10 -11z"/>
<path d="M8480 2160 c-12 -7 -10 -9 7 -7 12 0 19 5 17 9 -6 10 -6 10 -24 -2z"/>
<path d="M8414 2138 c-4 -7 -4 -10 1 -6 4 4 15 2 24 -5 14 -11 14 -10 2 6 -16
20 -18 21 -27 5z"/>
<path d="M8350 2098 c0 -4 4 -8 9 -8 6 0 12 4 15 8 3 5 -1 9 -9 9 -8 0 -15 -4
-15 -9z"/>
<path d="M8305 2080 c-3 -6 1 -7 9 -4 18 7 21 14 7 14 -6 0 -13 -4 -16 -10z"/>
<path d="M2480 2020 c-9 -6 -10 -10 -3 -10 6 0 15 5 18 10 8 12 4 12 -15 0z"/>
<path d="M8170 1980 c0 -5 5 -10 11 -10 5 0 7 5 4 10 -3 6 -8 10 -11 10 -2 0
-4 -4 -4 -10z"/>
<path d="M2635 1900 c3 -5 8 -10 11 -10 2 0 4 5 4 10 0 6 -5 10 -11 10 -5 0
-7 -4 -4 -10z"/>
<path d="M2670 1881 c0 -6 4 -13 10 -16 6 -3 7 1 4 9 -7 18 -14 21 -14 7z"/>
<path d="M7859 1873 c-13 -16 -12 -17 4 -4 16 13 21 21 13 21 -2 0 -10 -8 -17
-17z"/>
<path d="M7880 1855 c-7 -8 -17 -12 -23 -8 -6 4 -7 1 -3 -6 6 -9 13 -8 27 5
10 9 19 19 19 21 0 7 -8 2 -20 -12z"/>
<path d="M2825 1779 c-3 -4 2 -6 10 -5 21 3 28 13 10 13 -9 0 -18 -4 -20 -8z"/>
<path d="M7695 1769 c-4 -6 -5 -12 -2 -15 2 -3 7 2 10 11 7 17 1 20 -8 4z"/>
<path d="M7650 1755 c0 -8 2 -15 4 -15 2 0 6 7 10 15 3 8 1 15 -4 15 -6 0 -10
-7 -10 -15z"/>
<path d="M7557 1730 c7 -8 20 -15 29 -16 9 -1 13 1 9 4 -4 4 -10 7 -13 7 -4 0
-14 4 -22 9 -12 7 -13 6 -3 -4z"/>
<path d="M7455 1700 c-2 -3 5 -7 16 -7 10 -1 19 2 19 6 0 9 -29 10 -35 1z"/>
<path d="M7535 1700 c3 -5 8 -10 11 -10 2 0 4 5 4 10 0 6 -5 10 -11 10 -5 0
-7 -4 -4 -10z"/>
<path d="M3033 1685 c0 -8 4 -15 9 -15 4 0 8 4 8 9 0 6 -4 12 -8 15 -5 3 -9
-1 -9 -9z"/>
<path d="M3060 1686 c0 -2 8 -10 18 -17 15 -13 16 -12 3 4 -13 16 -21 21 -21
13z"/>
<path d="M7400 1680 c-12 -7 -10 -9 7 -7 12 0 19 5 17 9 -6 10 -6 10 -24 -2z"/>
<path d="M3100 1666 c0 -2 7 -7 16 -10 8 -3 12 -2 9 4 -6 10 -25 14 -25 6z"/>
<path d="M7376 1647 c3 -10 9 -15 12 -12 3 3 0 11 -7 18 -10 9 -11 8 -5 -6z"/>
<path d="M7062 1564 c10 -10 20 -16 22 -13 3 3 -5 11 -17 18 -21 13 -21 12 -5
-5z"/>
<path d="M6987 1539 c7 -7 15 -10 18 -7 3 3 -2 9 -12 12 -14 6 -15 5 -6 -5z"/>
<path d="M6896 1522 c-3 -5 1 -9 9 -9 8 0 12 4 9 9 -3 4 -7 8 -9 8 -2 0 -6 -4
-9 -8z"/>
<path d="M3495 1500 c3 -5 8 -10 11 -10 2 0 4 5 4 10 0 6 -5 10 -11 10 -5 0
-7 -4 -4 -10z"/>
<path d="M3633 1465 c0 -8 4 -12 9 -9 5 3 6 10 3 15 -9 13 -12 11 -12 -6z"/>
<path d="M3753 1435 c0 -8 4 -12 9 -9 5 3 6 10 3 15 -9 13 -12 11 -12 -6z"/>
<path d="M6646 1438 c3 -5 10 -6 15 -3 13 9 11 12 -6 12 -8 0 -12 -4 -9 -9z"/>
<path d="M6467 1419 c7 -7 15 -10 18 -7 3 3 -2 9 -12 12 -14 6 -15 5 -6 -5z"/>
<path d="M6500 1426 c0 -2 8 -10 18 -17 15 -13 16 -12 3 4 -13 16 -21 21 -21
13z"/>
<path d="M6433 1405 c0 -8 4 -12 9 -9 5 3 6 10 3 15 -9 13 -12 11 -12 -6z"/>
<path d="M3969 1397 c6 -8 7 -18 3 -22 -4 -5 -1 -5 6 -1 10 6 10 11 1 22 -6 8
-14 14 -16 14 -3 0 0 -6 6 -13z"/>
<path d="M6361 1396 c-9 -11 -9 -16 1 -22 7 -4 10 -4 6 1 -4 4 -3 14 3 22 6 7
9 13 6 13 -2 0 -10 -6 -16 -14z"/>
<path d="M4027 1379 c7 -7 15 -10 18 -7 3 3 -2 9 -12 12 -14 6 -15 5 -6 -5z"/>
<path d="M4228 1343 c6 -2 9 -10 6 -15 -4 -7 -2 -8 5 -4 13 9 5 26 -12 25 -9
0 -8 -2 1 -6z"/>
<path d="M5916 1341 c-3 -5 2 -15 12 -22 15 -12 16 -12 5 2 -7 9 -10 19 -6 22
3 4 4 7 0 7 -3 0 -8 -4 -11 -9z"/>
<path d="M5958 1333 c7 -3 16 -2 19 1 4 3 -2 6 -13 5 -11 0 -14 -3 -6 -6z"/>
<path d="M4266 1318 c3 -5 10 -6 15 -3 13 9 11 12 -6 12 -8 0 -12 -4 -9 -9z"/>
<path d="M4390 1310 c-9 -6 -10 -10 -3 -10 6 0 15 5 18 10 8 12 4 12 -15 0z"/>
<path d="M4590 1300 c0 -5 9 -8 20 -7 21 1 18 10 -5 13 -8 1 -15 -2 -15 -6z"/>
<path d="M4713 1289 c-2 -23 3 -25 10 -4 4 8 3 16 -1 19 -4 3 -9 -4 -9 -15z"/>
<path d="M5553 1295 c0 -8 4 -12 9 -9 5 3 6 10 3 15 -9 13 -12 11 -12 -6z"/>
<path d="M5035 1289 c-4 -6 -5 -12 -2 -15 2 -3 7 2 10 11 7 17 1 20 -8 4z"/>
<path d="M5149 1283 c-13 -16 -12 -17 4 -4 9 7 17 15 17 17 0 8 -8 3 -21 -13z"/>
<path d="M5495 1291 c-3 -5 -2 -12 3 -15 5 -3 9 1 9 9 0 17 -3 19 -12 6z"/>
<path d="M5399 1273 c-13 -16 -12 -17 4 -4 9 7 17 15 17 17 0 8 -8 3 -21 -13z"/>
<path d="M5430 1280 c0 -5 5 -10 11 -10 5 0 7 5 4 10 -3 6 -8 10 -11 10 -2 0
-4 -4 -4 -10z"/>
</g>
</svg>
